<svg width="25" height="25" viewBox="0 0 25 25" fill="none" xmlns="http://www.w3.org/2000/svg">
<g clip-path="url(#clip0_10_151)">
<path d="M12.8727 10.2015C13.3601 10.4612 13.9658 10.2767 14.2255 9.78927C14.4852 9.30186 14.3007 8.6962 13.8133 8.43647L12.8727 10.2015ZM11.6743 14.3455C11.1869 14.0858 10.5812 14.2703 10.3215 14.7577C10.0618 15.2452 10.2463 15.8508 10.7337 16.1105L11.6743 14.3455ZM11.7885 8.21972C11.5906 7.70412 11.0122 7.44659 10.4966 7.64451C9.98098 7.84243 9.72345 8.42085 9.92137 8.93646L11.7885 8.21972ZM12.7584 16.3273C12.9564 16.8429 13.5348 17.1004 14.0504 16.9025C14.566 16.7046 14.8235 16.1262 14.6256 15.6106L12.7584 16.3273ZM17.9917 10.0785C19.2039 13.2366 17.6266 16.7794 14.4685 17.9917L15.1852 19.8589C19.3745 18.2507 21.4669 13.551 19.8588 9.36177L17.9917 10.0785ZM14.4685 17.9917C11.3104 19.204 7.76758 17.6266 6.55531 14.4685L4.68815 15.1852C6.29626 19.3745 10.996 21.467 15.1852 19.8589L14.4685 17.9917ZM6.55531 14.4685C5.34304 11.3105 6.92042 7.7676 10.0785 6.55533L9.36175 4.68817C5.17248 6.29628 3.08004 10.996 4.68815 15.1852L6.55531 14.4685ZM10.0785 6.55533C13.2366 5.34306 16.7794 6.92044 17.9917 10.0785L19.8588 9.36177C18.2507 5.1725 13.551 3.08006 9.36175 4.68817L10.0785 6.55533ZM11.9151 11.3399C11.4615 11.5141 11.0452 11.5313 10.7591 11.4668C10.6185 11.4352 10.5294 11.3887 10.4803 11.3522C10.4352 11.3187 10.4254 11.296 10.4224 11.2881L8.55524 12.0048C8.86903 12.8223 9.60624 13.2573 10.3198 13.418C11.0415 13.5805 11.861 13.503 12.6319 13.2071L11.9151 11.3399ZM10.4224 11.2881C10.4194 11.2802 10.4114 11.2568 10.4225 11.2017C10.4346 11.1417 10.4697 11.0476 10.5531 10.93C10.7226 10.6906 11.0434 10.4249 11.497 10.2508L10.7803 8.38359C10.0094 8.67951 9.34859 9.17024 8.92098 9.77395C8.49822 10.3708 8.24145 11.1874 8.55524 12.0048L10.4224 11.2881ZM11.497 10.2508C12.1248 10.0098 12.6408 10.0779 12.8727 10.2015L13.8133 8.43647C12.9393 7.97076 11.7939 7.9945 10.7803 8.38359L11.497 10.2508ZM12.6319 13.2071C13.0855 13.0329 13.5017 13.0158 13.7879 13.0802C13.9285 13.1119 14.0176 13.1583 14.0667 13.1948C14.1118 13.2283 14.1216 13.2511 14.1246 13.2589L15.9918 12.5422C15.678 11.7247 14.9407 11.2897 14.2272 11.129C13.5055 10.9665 12.686 11.044 11.9151 11.3399L12.6319 13.2071ZM9.92137 8.93646L10.2051 9.67554L12.0722 8.9588L11.7885 8.21972L9.92137 8.93646ZM12.4748 15.5882L12.7584 16.3273L14.6256 15.6106L14.3419 14.8715L12.4748 15.5882ZM13.05 14.2963C12.4222 14.5372 11.9062 14.4691 11.6743 14.3455L10.7337 16.1105C11.6077 16.5763 12.7531 16.5525 13.7667 16.1634L13.05 14.2963ZM14.1246 13.2589C14.1276 13.2668 14.1356 13.2902 14.1245 13.3453C14.1124 13.4053 14.0773 13.4994 13.9939 13.6171C13.8244 13.8564 13.5036 14.1221 13.05 14.2963L13.7667 16.1634C14.5376 15.8675 15.1984 15.3768 15.626 14.7731C16.0488 14.1762 16.3055 13.3596 15.9918 12.5422L14.1246 13.2589ZM10.2051 9.67554L12.4748 15.5882L14.3419 14.8715L12.0722 8.9588L10.2051 9.67554Z" fill="#21272A"/>
</g>
<defs>
<clipPath id="clip0_10_151">
<rect width="19" height="19" fill="white" transform="translate(0 6.80899) rotate(-21)"/>
</clipPath>
</defs>
</svg>
