<svg width="23" height="23" viewBox="0 0 23 23" fill="none" xmlns="http://www.w3.org/2000/svg">
<g clip-path="url(#clip0_10_155)">
<path d="M12.003 13.963C10.7042 14.9622 9.36551 14.4749 9.01288 12.8747C8.66024 11.2745 9.4272 9.16728 10.7259 8.16811C12.0247 7.16894 13.3634 7.65619 13.716 9.25641M8.90877 9.04108L11.7278 10.0671M8.18198 11.0379L11.0011 12.064M17.7074 13.3742C16.5032 16.6827 12.6872 18.3311 9.18407 17.0561C5.68097 15.7811 3.81734 12.0654 5.02153 8.75693C6.22572 5.44845 10.0417 3.8 13.5448 5.07503C17.0479 6.35005 18.9116 10.0657 17.7074 13.3742Z" stroke="#21272A" stroke-width="2" stroke-linecap="round" stroke-linejoin="round"/>
</g>
<defs>
<clipPath id="clip0_10_155">
<rect width="18" height="17" fill="white" transform="translate(5.81445) rotate(20)"/>
</clipPath>
</defs>
</svg>
